<svg fill="none" viewBox="0 0 120 120" width="120" height="120" xmlns="http://www.w3.org/2000/svg">
  <style>
    @keyframes draw {
      0% { stroke-dashoffset: 650; }
      100% { stroke-dashoffset: 0; }
    }
    .text-path {
      stroke: rgb(52, 73, 94);
      stroke-width: 1;
      fill: none;
      stroke-dasharray: 650;
      stroke-dashoffset: 0;
      animation: draw 3s ease forwards;
    }
  </style>
  <path class="text-path" d="M10,80h2v-16h-2v16Zm14.6-16.4c-4.4,0-7,3.2-7,8.4,0,5.2,2.6,8.4,7,8.4,4.4,0,7-3.2,7-8.4,0-5.2-2.6-8.4-7-8.4Zm0,2c3,0,4.8,2.4,4.8,6.4,0,4-1.8,6.4-4.8,6.4-3,0-4.8-2.4-4.8-6.4,0-4,1.8-6.4,4.8-6.4Zm22.8,14.4h2.2l-4.6-8.2,4.2-7.8h-2.2l-3.2,6.2h-3.2v-6.2h-2v16h2v-7.8h3.2l3.6,7.8Zm13.8-16.4c-4.4,0-7,3.2-7,8.4,0,5.2,2.6,8.4,7,8.4,4.4,0,7-3.2,7-8.4,0-5.2-2.6-8.4-7-8.4Zm0,2c3,0,4.8,2.4,4.8,6.4,0,4-1.8,6.4-4.8,6.4-3,0-4.8-2.4-4.8-6.4,0-4,1.8-6.4,4.8-6.4Z"/>
</svg>
